# xmcd
#
# Track frame offsets:
#	150
#	16835
#	31570
#	47490
#	65185
#	79702
#	100880
#	121635
#	134715
#	153175
#	169895
#	186155
#	207760
#
# Disc length: 2960 seconds
#
# Revision: 2
# Processed by: cddbd v1.5.2PL0 Copyright (c) Steve Scherf et al.
# Submitted via: audiograbber 1.83.01
#
DISCID=a10b8e0d
DTITLE=Scott McClatchy - Blue Moon Revisited
DYEAR=1997
DGENRE=Rock
TTITLE0=Throw A Little
TTITLE1=Going Out Tonight
TTITLE2=Call Out My Name
TTITLE3=Go Slow
TTITLE4=Reflection
TTITLE5=Please Let Me Know
TTITLE6=Good Man's Spirit
TTITLE7=Love Thang
TTITLE8=By Midnight
TTITLE9=You Wear It Well
TTITLE10=Margaret Ruth
TTITLE11=Shut Out The Night
TTITLE12=Blue Moon Revisited
EXTD=
EXTT0=
EXTT1=
EXTT2=
EXTT3=
EXTT4=
EXTT5=
EXTT6=
EXTT7=
EXTT8=
EXTT9=
EXTT10=
EXTT11=
EXTT12=
PLAYORDER=
